<?xml version="1.0" encoding="UTF-8" standalone="no" ?>
<!DOCTYPE svg PUBLIC "-//W3C//DTD SVG 1.1//EN" "http://www.w3.org/Graphics/SVG/1.1/DTD/svg11.dtd">
<svg xmlns="http://www.w3.org/2000/svg" xmlns:xlink="http://www.w3.org/1999/xlink" version="1.1" width="151.8pt" height="132.5pt" viewBox="-0.15000000000000568 0 151.8 132.5" xml:space="preserve">
<desc>Created with Fabric.js 5.3.0</desc>
<defs>
</defs>
<g transform="matrix(0.5377049129 0 0 0.5377048837 25 22.2500016283)" id="azJFSJdjtFbUeo5vQUPZP"  >
<path style="stroke: rgb(34,60,116); stroke-width: 0; stroke-dasharray: none; stroke-linecap: butt; stroke-dashoffset: 0; stroke-linejoin: miter; stroke-miterlimit: 4; fill: rgb(0,0,0); fill-rule: nonzero; opacity: 1;"  transform=" translate(-46.493905, -40.2649)" d="M 69.74084 0 L 92.98781000000001 40.2649 L 69.74084 80.5298 L 23.246970000000005 80.5298 L 3.552713678800501e-15 40.2649 L 23.246970000000005 0 z" stroke-linecap="round" />
</g>
<g transform="matrix(0.5377049129 0 0 0.5377048837 63.0000011384 44.25)" id="OAJOwIoL5In7_EDFVn-6l"  >
<path style="stroke: rgb(34,60,116); stroke-width: 0; stroke-dasharray: none; stroke-linecap: butt; stroke-dashoffset: 0; stroke-linejoin: miter; stroke-miterlimit: 4; fill: rgb(0,0,0); fill-rule: nonzero; opacity: 1;"  transform=" translate(-46.493905, -40.2649)" d="M 69.74084 0 L 92.98781000000001 40.2649 L 69.74084 80.5298 L 23.246970000000005 80.5298 L 3.552713678800501e-15 40.2649 L 23.246970000000005 0 z" stroke-linecap="round" />
</g>
<g transform="matrix(0.5377049129 0 0 0.5377048837 63.0000011384 88.25)" id="TyCX5k1jKgY6oxwljKrPT"  >
<path style="stroke: rgb(34,60,116); stroke-width: 0; stroke-dasharray: none; stroke-linecap: butt; stroke-dashoffset: 0; stroke-linejoin: miter; stroke-miterlimit: 4; fill: rgb(0,0,0); fill-rule: nonzero; opacity: 1;"  transform=" translate(-46.493905, -40.2649)" d="M 69.74084 0 L 92.98781000000001 40.2649 L 69.74084 80.5298 L 23.246970000000005 80.5298 L 3.552713678800501e-15 40.2649 L 23.246970000000005 0 z" stroke-linecap="round" />
</g>
<g transform="matrix(0.5377049129 0 0 0.5377048837 63.0000011384 0.25)" id="r2x9Ey5x95MmUfH5p0sqe"  >
<path style="stroke: rgb(34,60,116); stroke-width: 0; stroke-dasharray: none; stroke-linecap: butt; stroke-dashoffset: 0; stroke-linejoin: miter; stroke-miterlimit: 4; fill: rgb(0,0,0); fill-rule: nonzero; opacity: 1;"  transform=" translate(-46.493905, -40.2649)" d="M 69.74084 0 L 92.98781000000001 40.2649 L 69.74084 80.5298 L 23.246970000000005 80.5298 L 3.552713678800501e-15 40.2649 L 23.246970000000005 0 z" stroke-linecap="round" />
</g>
<g transform="matrix(0.5377049129 0 0 0.5377048837 24.9999988616 66.25)" id="Tr_ddYmIsKcpaQJvkVaqL"  >
<path style="stroke: rgb(34,60,116); stroke-width: 0; stroke-dasharray: none; stroke-linecap: butt; stroke-dashoffset: 0; stroke-linejoin: miter; stroke-miterlimit: 4; fill: rgb(0,0,0); fill-rule: nonzero; opacity: 1;"  transform=" translate(-46.493905, -40.2649)" d="M 69.74084 0 L 92.98781000000001 40.2649 L 69.74084 80.5298 L 23.246970000000005 80.5298 L 3.552713678800501e-15 40.2649 L 23.246970000000005 0 z" stroke-linecap="round" />
</g>
<g transform="matrix(0.5377049129 0 0 0.5377048837 63.0000011384 132.25)" id="OVCRYKDawdd1DZAQ26BEV"  >
<path style="stroke: rgb(34,60,116); stroke-width: 0; stroke-dasharray: none; stroke-linecap: butt; stroke-dashoffset: 0; stroke-linejoin: miter; stroke-miterlimit: 4; fill: rgb(0,0,0); fill-rule: nonzero; opacity: 1;"  transform=" translate(-46.493905, -40.2649)" d="M 69.74084 0 L 92.98781000000001 40.2649 L 69.74084 80.5298 L 23.246970000000005 80.5298 L 3.552713678800501e-15 40.2649 L 23.246970000000005 0 z" stroke-linecap="round" />
</g>
<g transform="matrix(0.5377049129 0 0 0.5377048837 139.0000011384 132.25)" id="-xRZ5VWtPQ6BsWjPtO3ME"  >
<path style="stroke: rgb(34,60,116); stroke-width: 0; stroke-dasharray: none; stroke-linecap: butt; stroke-dashoffset: 0; stroke-linejoin: miter; stroke-miterlimit: 4; fill: rgb(0,0,0); fill-rule: nonzero; opacity: 1;"  transform=" translate(-46.493905, -40.2649)" d="M 69.74084 0 L 92.98781000000001 40.2649 L 69.74084 80.5298 L 23.246970000000005 80.5298 L 3.552713678800501e-15 40.2649 L 23.246970000000005 0 z" stroke-linecap="round" />
</g>
<g transform="matrix(0.5377049129 0 0 0.5377048837 -12.9999988616 87.9006333717)" id="tzpuCU4CAgJqOEnsBf8LA"  >
<path style="stroke: rgb(34,60,116); stroke-width: 0; stroke-dasharray: none; stroke-linecap: butt; stroke-dashoffset: 0; stroke-linejoin: miter; stroke-miterlimit: 4; fill: rgb(0,0,0); fill-rule: nonzero; opacity: 1;"  transform=" translate(-46.493905, -40.2649)" d="M 69.74084 0 L 92.98781000000001 40.2649 L 69.74084 80.5298 L 23.246970000000005 80.5298 L 3.552713678800501e-15 40.2649 L 23.246970000000005 0 z" stroke-linecap="round" />
</g>
<g transform="matrix(0.5377049129 0 0 0.5377048837 -12.9999988616 0.25)" id="0o5ozNZAH4kFHEGWGo8bZ"  >
<path style="stroke: rgb(34,60,116); stroke-width: 0; stroke-dasharray: none; stroke-linecap: butt; stroke-dashoffset: 0; stroke-linejoin: miter; stroke-miterlimit: 4; fill: rgb(0,0,0); fill-rule: nonzero; opacity: 1;"  transform=" translate(-46.493905, -40.2649)" d="M 69.74084 0 L 92.98781000000001 40.2649 L 69.74084 80.5298 L 23.246970000000005 80.5298 L 3.552713678800501e-15 40.2649 L 23.246970000000005 0 z" stroke-linecap="round" />
</g>
<g transform="matrix(0.5377049129 0 0 0.5377048837 101.0000011384 22.25)" id="nhX1k12h5zwhrkIWL4L13"  >
<path style="stroke: rgb(34,60,116); stroke-width: 0; stroke-dasharray: none; stroke-linecap: butt; stroke-dashoffset: 0; stroke-linejoin: miter; stroke-miterlimit: 4; fill: rgb(0,0,0); fill-rule: nonzero; opacity: 1;"  transform=" translate(-46.493905, -40.2649)" d="M 69.74084 0 L 92.98781000000001 40.2649 L 69.74084 80.5298 L 23.246970000000005 80.5298 L 3.552713678800501e-15 40.2649 L 23.246970000000005 0 z" stroke-linecap="round" />
</g>
<g transform="matrix(0.5377049129 0 0 0.5377048837 25.0000011384 110.25)" id="8eOXtNYpEtcgSPgb179u2"  >
<path style="stroke: rgb(34,60,116); stroke-width: 0; stroke-dasharray: none; stroke-linecap: butt; stroke-dashoffset: 0; stroke-linejoin: miter; stroke-miterlimit: 4; fill: rgb(0,0,0); fill-rule: nonzero; opacity: 1;"  transform=" translate(-46.493905, -40.2649)" d="M 69.74084 0 L 92.98781000000001 40.2649 L 69.74084 80.5298 L 23.246970000000005 80.5298 L 3.552713678800501e-15 40.2649 L 23.246970000000005 0 z" stroke-linecap="round" />
</g>
<g transform="matrix(0.5377049129 0 0 0.5377048837 101.0000011384 66.25)" id="WNz_Pw8c9orDkw1_g2BnS"  >
<path style="stroke: rgb(34,60,116); stroke-width: 0; stroke-dasharray: none; stroke-linecap: butt; stroke-dashoffset: 0; stroke-linejoin: miter; stroke-miterlimit: 4; fill: rgb(0,0,0); fill-rule: nonzero; opacity: 1;"  transform=" translate(-46.493905, -40.2649)" d="M 69.74084 0 L 92.98781000000001 40.2649 L 69.74084 80.5298 L 23.246970000000005 80.5298 L 3.552713678800501e-15 40.2649 L 23.246970000000005 0 z" stroke-linecap="round" />
</g>
<g transform="matrix(0.5377049129 0 0 0.5377048837 139.0000011384 0.25)" id="1ZRCE8spjiOzAkD78otxt"  >
<path style="stroke: rgb(34,60,116); stroke-width: 0; stroke-dasharray: none; stroke-linecap: butt; stroke-dashoffset: 0; stroke-linejoin: miter; stroke-miterlimit: 4; fill: rgb(0,0,0); fill-rule: nonzero; opacity: 1;"  transform=" translate(-46.493905, -40.2649)" d="M 69.74084 0 L 92.98781000000001 40.2649 L 69.74084 80.5298 L 23.246970000000005 80.5298 L 3.552713678800501e-15 40.2649 L 23.246970000000005 0 z" stroke-linecap="round" />
</g>
<g transform="matrix(0.5377049129 0 0 0.5377048837 139.0000011384 44.25)" id="3a7RYlP9JaPSbqgReoD-8"  >
<path style="stroke: rgb(34,60,116); stroke-width: 0; stroke-dasharray: none; stroke-linecap: butt; stroke-dashoffset: 0; stroke-linejoin: miter; stroke-miterlimit: 4; fill: rgb(0,0,0); fill-rule: nonzero; opacity: 1;"  transform=" translate(-46.493905, -40.2649)" d="M 69.74084 0 L 92.98781000000001 40.2649 L 69.74084 80.5298 L 23.246970000000005 80.5298 L 3.552713678800501e-15 40.2649 L 23.246970000000005 0 z" stroke-linecap="round" />
</g>
<g transform="matrix(0.5377049129 0 0 0.5377048837 -12.9999988616 132.25)" id="Sbx3-f4SKsqjp4It5iAl2"  >
<path style="stroke: rgb(34,60,116); stroke-width: 0; stroke-dasharray: none; stroke-linecap: butt; stroke-dashoffset: 0; stroke-linejoin: miter; stroke-miterlimit: 4; fill: rgb(0,0,0); fill-rule: nonzero; opacity: 1;"  transform=" translate(-46.493905, -40.2649)" d="M 69.74084 0 L 92.98781000000001 40.2649 L 69.74084 80.5298 L 23.246970000000005 80.5298 L 3.552713678800501e-15 40.2649 L 23.246970000000005 0 z" stroke-linecap="round" />
</g>
<g transform="matrix(0.5377049129 0 0 0.5377048837 139.0000011384 88.25)" id="QdT9KAcFlZ-aUhSB9BUGa"  >
<path style="stroke: rgb(34,60,116); stroke-width: 0; stroke-dasharray: none; stroke-linecap: butt; stroke-dashoffset: 0; stroke-linejoin: miter; stroke-miterlimit: 4; fill: rgb(0,0,0); fill-rule: nonzero; opacity: 1;"  transform=" translate(-0.000005, 0)" d="M 23.24694 -40.2649 L 46.49391 0 L 23.24694 40.2649 L -23.246930000000003 40.2649 L -46.493900000000004 0 L -23.246930000000003 -40.2649 z" stroke-linecap="round" />
</g>
<g transform="matrix(0.5377049129 0 0 0.5377048837 101.0000011384 110.25)" id="s8en9qecZBGlRrcReTSEp"  >
<path style="stroke: rgb(34,60,116); stroke-width: 0; stroke-dasharray: none; stroke-linecap: butt; stroke-dashoffset: 0; stroke-linejoin: miter; stroke-miterlimit: 4; fill: rgb(0,0,0); fill-rule: nonzero; opacity: 1;"  transform=" translate(-46.493905, -40.2649)" d="M 69.74084 0 L 92.98781000000001 40.2649 L 69.74084 80.5298 L 23.246970000000005 80.5298 L 3.552713678800501e-15 40.2649 L 23.246970000000005 0 z" stroke-linecap="round" />
</g>
<g transform="matrix(0.5377049129 0 0 0.5377048837 -12.9999988616 44.25)" id="4bXgNMIZPxWXg0-PRsTEN"  >
<path style="stroke: rgb(34,60,116); stroke-width: 0; stroke-dasharray: none; stroke-linecap: butt; stroke-dashoffset: 0; stroke-linejoin: miter; stroke-miterlimit: 4; fill: rgb(0,0,0); fill-rule: nonzero; opacity: 1;"  transform=" translate(-46.493905, -40.2649)" d="M 69.74084 0 L 92.98781000000001 40.2649 L 69.74084 80.5298 L 23.246970000000005 80.5298 L 3.552713678800501e-15 40.2649 L 23.246970000000005 0 z" stroke-linecap="round" />
</g>
</svg>